<svg width="93" height="25" viewBox="0 0 93 25" fill="none" xmlns="http://www.w3.org/2000/svg">
<path d="M9.84 4.1C6.624 4.1 4.968 6.356 4.968 9.788C4.968 13.364 6.984 15.14 9.816 15.14C12.744 15.14 14.04 13.556 14.208 11.708H9.504V8.3H17.856V18.5H14.52L14.304 16.892C13.344 18.02 11.424 18.764 9.312 18.764C4.344 18.764 0.864 15.116 0.864 9.668C0.864 4.316 4.44 0.451999 9.936 0.451999C14.184 0.451999 17.448 2.948 17.856 6.788H13.776C13.32 4.916 11.688 4.1 9.84 4.1ZM23.4908 18.5H19.4348L25.7708 0.74H29.5628L35.8748 18.5H31.7468L30.4988 14.756H24.7628L23.4908 18.5ZM27.1628 7.7L25.8908 11.492H29.3948L28.1228 7.7C27.9308 7.1 27.7148 6.404 27.6428 5.972C27.5708 6.38 27.3788 7.052 27.1628 7.7Z" fill="#231F20"/>
<path d="M37.4858 24.26V6.5H40.9658L41.1578 7.964C41.8298 6.86 43.3418 6.116 45.0458 6.116C48.3818 6.116 50.7098 8.444 50.7098 12.308C50.7098 16.1 48.6458 18.836 45.0698 18.836C43.4138 18.836 41.8778 18.212 41.1818 17.3V24.26H37.4858ZM41.2058 12.5C41.2058 14.3 42.4058 15.5 44.1338 15.5C45.8858 15.5 46.9898 14.276 46.9898 12.5C46.9898 10.724 45.8858 9.5 44.1338 9.5C42.4058 9.5 41.2058 10.7 41.2058 12.5ZM56.4613 18.812C53.9173 18.812 52.3333 17.324 52.3333 14.972C52.3333 12.764 53.8933 11.396 56.7733 11.18L60.1333 10.916V10.724C60.1333 9.548 59.4133 8.924 58.0933 8.924C56.5333 8.924 55.6933 9.524 55.6933 10.604H52.6213C52.6213 7.892 54.8533 6.116 58.2853 6.116C61.7653 6.116 63.7333 8.06 63.7333 11.492V18.5H60.4693L60.2293 16.916C59.8453 18.02 58.2613 18.812 56.4613 18.812ZM57.7573 16.076C59.1733 16.076 60.1573 15.38 60.1573 14.012V13.364L58.2853 13.532C56.6773 13.676 56.1013 14.036 56.1013 14.804C56.1013 15.668 56.6293 16.076 57.7573 16.076ZM66.3842 24.26V6.5H69.8642L70.0562 7.964C70.7282 6.86 72.2402 6.116 73.9442 6.116C77.2802 6.116 79.6082 8.444 79.6082 12.308C79.6082 16.1 77.5442 18.836 73.9682 18.836C72.3122 18.836 70.7762 18.212 70.0802 17.3V24.26H66.3842ZM70.1042 12.5C70.1042 14.3 71.3042 15.5 73.0322 15.5C74.7842 15.5 75.8882 14.276 75.8882 12.5C75.8882 10.724 74.7842 9.5 73.0322 9.5C71.3042 9.5 70.1042 10.7 70.1042 12.5ZM85.3598 18.812C82.8158 18.812 81.2318 17.324 81.2318 14.972C81.2318 12.764 82.7918 11.396 85.6718 11.18L89.0318 10.916V10.724C89.0318 9.548 88.3118 8.924 86.9918 8.924C85.4318 8.924 84.5918 9.524 84.5918 10.604H81.5198C81.5198 7.892 83.7518 6.116 87.1838 6.116C90.6638 6.116 92.6318 8.06 92.6318 11.492V18.5H89.3678L89.1278 16.916C88.7438 18.02 87.1598 18.812 85.3598 18.812ZM86.6558 16.076C88.0718 16.076 89.0558 15.38 89.0558 14.012V13.364L87.1838 13.532C85.5758 13.676 84.9998 14.036 84.9998 14.804C84.9998 15.668 85.5278 16.076 86.6558 16.076Z" fill="#F5D94A"/>
</svg>
