<svg width="34" height="34" viewBox="0 0 34 34" fill="none" xmlns="http://www.w3.org/2000/svg">
<g clip-path="url(#clip0_31_945)">
<path d="M33.4847 17.3181C33.4847 15.9251 33.3724 14.9086 33.1294 13.8545H17.3291V20.1416H26.6035C26.4166 21.7041 25.4069 24.0571 23.163 25.6382L23.1316 25.8487L28.1273 29.7448L28.4734 29.7796C31.6521 26.8242 33.4847 22.4758 33.4847 17.3181Z" fill="#4285F4"/>
<path d="M17.3286 33.8829C21.8723 33.8829 25.6868 32.3769 28.4729 29.7793L23.1625 25.6379C21.7415 26.6356 19.8342 27.3321 17.3286 27.3321C12.8784 27.3321 9.1013 24.3768 7.75487 20.292L7.55752 20.3089L2.36286 24.356L2.29492 24.5461C5.06228 30.0804 10.7467 33.8829 17.3286 33.8829Z" fill="#34A853"/>
<path d="M7.75497 20.2925C7.39971 19.2383 7.1941 18.1088 7.1941 16.9418C7.1941 15.7746 7.39971 14.6452 7.73628 13.5911L7.72687 13.3666L2.46711 9.25439L2.29502 9.3368C1.15446 11.6334 0.5 14.2123 0.5 16.9418C0.5 19.6712 1.15446 22.2501 2.29502 24.5466L7.75497 20.2925Z" fill="#FBBC05"/>
<path d="M17.3286 6.55071C20.4886 6.55071 22.6202 7.92486 23.8357 9.0732L28.5851 4.40482C25.6682 1.67534 21.8723 0 17.3286 0C10.7467 0 5.06228 3.80242 2.29492 9.33663L7.73618 13.5909C9.1013 9.50611 12.8784 6.55071 17.3286 6.55071Z" fill="#EB4335"/>
</g>
<defs>
<clipPath id="clip0_31_945">
<rect width="33" height="34" fill="white" transform="translate(0.5)"/>
</clipPath>
</defs>
</svg>
