<svg width="53" height="53" viewBox="0 0 53 53" fill="none" xmlns="http://www.w3.org/2000/svg">
<path d="M8.83333 39.75H44.1667C45.3812 39.75 46.375 38.7562 46.375 37.5417C46.375 36.3271 45.3812 35.3333 44.1667 35.3333H8.83333C7.61875 35.3333 6.625 36.3271 6.625 37.5417C6.625 38.7562 7.61875 39.75 8.83333 39.75ZM8.83333 28.7083H44.1667C45.3812 28.7083 46.375 27.7146 46.375 26.5C46.375 25.2854 45.3812 24.2917 44.1667 24.2917H8.83333C7.61875 24.2917 6.625 25.2854 6.625 26.5C6.625 27.7146 7.61875 28.7083 8.83333 28.7083ZM6.625 15.4583C6.625 16.6729 7.61875 17.6667 8.83333 17.6667H44.1667C45.3812 17.6667 46.375 16.6729 46.375 15.4583C46.375 14.2437 45.3812 13.25 44.1667 13.25H8.83333C7.61875 13.25 6.625 14.2437 6.625 15.4583Z" fill="black"/>
</svg>
